<svg xmlns="http://www.w3.org/2000/svg" version="1.1" xmlns:xlink="http://www.w3.org/1999/xlink" xmlns:svgjs="http://svgjs.dev/svgjs" width="1500" height="382" viewBox="0 0 1500 382"><g transform="matrix(1,0,0,1,-0.9090909090909918,-0.6047397880838616)"><svg viewBox="0 0 396 101" data-background-color="#ffffff" preserveAspectRatio="xMidYMid meet" height="382" width="1500" xmlns="http://www.w3.org/2000/svg" xmlns:xlink="http://www.w3.org/1999/xlink"><g id="tight-bounds" transform="matrix(1,0,0,1,0.2400000000000091,0.15989193349861353)"><svg viewBox="0 0 395.52 100.68021613300279" height="100.68021613300279" width="395.52"><g><svg viewBox="0 0 395.52 100.68021613300279" height="100.68021613300279" width="395.52"><g><svg viewBox="0 0 395.52 100.68021613300279" height="100.68021613300279" width="395.52"><g id="textblocktransform"><svg viewBox="0 0 395.52 100.68021613300279" height="100.68021613300279" width="395.52" id="textblock"><g><svg viewBox="0 0 395.52 43.07847153626202" height="43.07847153626202" width="395.52"><g transform="matrix(1,0,0,1,0,0)"><svg width="395.52" viewBox="2.05 -45.14 469.57 51.15" height="43.07847153626202" data-palette-color="#fb7185"><path d="M40.67-17.63L40.67-17.63Q40.67-13.38 39.21-9.97 37.74-6.57 35.16-4.2 32.57-1.83 29.03-0.56 25.49 0.71 21.36 0.71L21.36 0.71Q17.24 0.71 13.7-0.56 10.16-1.83 7.57-4.2 4.98-6.57 3.52-9.97 2.05-13.38 2.05-17.63L2.05-17.63Q2.05-21.95 3.5-25.35 4.96-28.76 7.53-31.12 10.11-33.47 13.65-34.73 17.19-35.99 21.36-35.99L21.36-35.99Q25.54-35.99 29.08-34.73 32.62-33.47 35.19-31.12 37.77-28.76 39.22-25.35 40.67-21.95 40.67-17.63ZM30.81-17.63L30.81-17.63Q30.81-19.24 30.66-20.92 30.52-22.61 30.13-24.19 29.74-25.78 29.06-27.17 28.39-28.56 27.34-29.6 26.29-30.64 24.82-31.24 23.34-31.84 21.36-31.84L21.36-31.84Q19.36-31.84 17.87-31.24 16.38-30.64 15.33-29.61 14.28-28.59 13.62-27.2 12.96-25.81 12.59-24.23 12.21-22.66 12.06-20.96 11.91-19.26 11.91-17.63L11.91-17.63Q11.91-16.02 12.06-14.33 12.21-12.65 12.6-11.07 12.99-9.5 13.66-8.11 14.33-6.71 15.38-5.68 16.43-4.64 17.91-4.03 19.38-3.42 21.36-3.42L21.36-3.42Q23.29-3.42 24.73-4.04 26.17-4.66 27.22-5.73 28.27-6.79 28.97-8.19 29.66-9.59 30.07-11.17 30.47-12.74 30.64-14.4 30.81-16.06 30.81-17.63ZM29.57-41.55L29.57-41.55Q29.57-40.82 29.28-40.16 29-39.5 28.52-39.01 28.03-38.53 27.37-38.24 26.71-37.96 25.95-37.96L25.95-37.96Q25.22-37.96 24.56-38.24 23.9-38.53 23.41-39.01 22.92-39.5 22.64-40.16 22.36-40.82 22.36-41.55L22.36-41.55Q22.36-42.29 22.64-42.94 22.92-43.6 23.41-44.09 23.9-44.58 24.56-44.86 25.22-45.14 25.95-45.14L25.95-45.14Q26.71-45.14 27.37-44.86 28.03-44.58 28.52-44.09 29-43.6 29.28-42.94 29.57-42.29 29.57-41.55ZM20.36-41.55L20.36-41.55Q20.36-40.82 20.08-40.16 19.8-39.5 19.31-39.01 18.82-38.53 18.16-38.24 17.5-37.96 16.75-37.96L16.75-37.96Q16.02-37.96 15.36-38.24 14.7-38.53 14.21-39.01 13.72-39.5 13.44-40.16 13.16-40.82 13.16-41.55L13.16-41.55Q13.16-42.29 13.44-42.94 13.72-43.6 14.21-44.09 14.7-44.58 15.36-44.86 16.02-45.14 16.75-45.14L16.75-45.14Q17.5-45.14 18.16-44.86 18.82-44.58 19.31-44.09 19.8-43.6 20.08-42.94 20.36-42.29 20.36-41.55ZM67.89-3.27L67.89 0 44.02 0 44.02-3.27 44.02-3.27 58.79-24.93 44.02-24.93 44.02-28.2 67.89-28.2 67.89-24.93 53.12-3.27 67.89-3.27ZM79.1-13.38L79.1-13.38Q80.61-13.04 82.12-12.84 83.64-12.65 85.18-12.65L85.18-12.65Q86.79-12.65 88.17-12.95 89.55-13.26 90.56-13.98 91.57-14.7 92.16-15.89 92.74-17.09 92.74-18.87L92.74-18.87Q92.74-20.31 92.35-21.51 91.96-22.71 91.19-23.56 90.42-24.41 89.3-24.89 88.18-25.37 86.69-25.37L86.69-25.37Q85.3-25.37 84.19-24.85 83.08-24.34 82.23-23.47 81.39-22.61 80.79-21.46 80.2-20.31 79.8-19.07 79.41-17.82 79.24-16.55 79.07-15.28 79.07-14.16L79.07-14.16Q79.07-13.96 79.07-13.77 79.07-13.57 79.1-13.38ZM99.43-18.95L99.43-18.95Q99.43-17.21 98.87-15.86 98.31-14.5 97.35-13.48 96.38-12.45 95.11-11.74 93.84-11.04 92.4-10.58 90.96-10.13 89.44-9.94 87.91-9.74 86.47-9.74L86.47-9.74Q84.64-9.74 82.86-10 81.07-10.25 79.34-10.82L79.34-10.82Q79.61-9.2 80.2-7.75 80.78-6.3 81.76-5.21 82.73-4.13 84.16-3.49 85.59-2.86 87.54-2.86L87.54-2.86Q88.84-2.86 90.01-3.25 91.18-3.64 92.16-4.35 93.13-5.05 93.88-6.03 94.62-7.01 95.09-8.2L95.09-8.2 98.65-6.88Q97.85-4.96 96.44-3.55 95.04-2.15 93.27-1.23 91.5-0.32 89.51 0.12 87.52 0.56 85.57 0.56L85.57 0.56Q82.34 0.56 79.61-0.52 76.87-1.61 74.9-3.56 72.92-5.52 71.8-8.23 70.67-10.94 70.67-14.16L70.67-14.16Q70.67-17.38 71.8-20.09 72.92-22.8 74.9-24.76 76.87-26.71 79.61-27.8 82.34-28.88 85.57-28.88L85.57-28.88Q87.13-28.88 88.76-28.66 90.4-28.44 91.94-27.97 93.48-27.49 94.84-26.73 96.21-25.98 97.22-24.87 98.24-23.75 98.84-22.29 99.43-20.83 99.43-18.95ZM112.83-32.62L112.83 0 104.58 0 104.58-41.19 107.76-41.19 112.83-32.62ZM168.49-17.63L168.49-17.63Q168.49-15.06 167.81-12.76 167.13-10.45 165.89-8.5 164.66-6.54 162.95-4.97 161.24-3.39 159.18-2.29 157.12-1.2 154.76-0.6 152.4 0 149.91 0L149.91 0 134.41 0 134.41-35.16 149.91-35.16Q152.4-35.16 154.75-34.57 157.09-33.98 159.15-32.9 161.22-31.81 162.94-30.25 164.66-28.69 165.89-26.75 167.13-24.8 167.81-22.5 168.49-20.19 168.49-17.63ZM158.65-17.63L158.65-17.63Q158.65-20.48 157.96-23.06 157.26-25.63 155.8-27.59 154.33-29.54 152.07-30.69 149.82-31.84 146.67-31.84L146.67-31.84 144.1-31.84 144.1-3.42 146.67-3.42Q149.77-3.42 152.03-4.58 154.28-5.74 155.76-7.7 157.24-9.67 157.95-12.23 158.65-14.79 158.65-17.63ZM180.45-13.38L180.45-13.38Q181.97-13.04 183.48-12.84 184.99-12.65 186.53-12.65L186.53-12.65Q188.14-12.65 189.52-12.95 190.9-13.26 191.92-13.98 192.93-14.7 193.52-15.89 194.1-17.09 194.1-18.87L194.1-18.87Q194.1-20.31 193.71-21.51 193.32-22.71 192.55-23.56 191.78-24.41 190.66-24.89 189.54-25.37 188.05-25.37L188.05-25.37Q186.65-25.37 185.54-24.85 184.43-24.34 183.59-23.47 182.75-22.61 182.15-21.46 181.55-20.31 181.16-19.07 180.77-17.82 180.6-16.55 180.43-15.28 180.43-14.16L180.43-14.16Q180.43-13.96 180.43-13.77 180.43-13.57 180.45-13.38ZM200.79-18.95L200.79-18.95Q200.79-17.21 200.23-15.86 199.67-14.5 198.7-13.48 197.74-12.45 196.47-11.74 195.2-11.04 193.76-10.58 192.32-10.13 190.79-9.94 189.27-9.74 187.83-9.74L187.83-9.74Q186-9.74 184.21-10 182.43-10.25 180.7-10.82L180.7-10.82Q180.97-9.2 181.55-7.75 182.14-6.3 183.11-5.21 184.09-4.13 185.52-3.49 186.95-2.86 188.9-2.86L188.9-2.86Q190.19-2.86 191.37-3.25 192.54-3.64 193.52-4.35 194.49-5.05 195.24-6.03 195.98-7.01 196.44-8.2L196.44-8.2 200.01-6.88Q199.2-4.96 197.8-3.55 196.4-2.15 194.63-1.23 192.86-0.32 190.87 0.12 188.88 0.56 186.92 0.56L186.92 0.56Q183.7 0.56 180.97-0.52 178.23-1.61 176.25-3.56 174.28-5.52 173.15-8.23 172.03-10.94 172.03-14.16L172.03-14.16Q172.03-17.38 173.15-20.09 174.28-22.8 176.25-24.76 178.23-26.71 180.97-27.8 183.7-28.88 186.92-28.88L186.92-28.88Q188.49-28.88 190.12-28.66 191.76-28.44 193.3-27.97 194.83-27.49 196.2-26.73 197.57-25.98 198.58-24.87 199.59-23.75 200.19-22.29 200.79-20.83 200.79-18.95ZM229.91-25.71L229.91-25.71 225.28-18.02Q224.98-18.99 224.52-20.21 224.05-21.44 223.37-22.5 222.69-23.56 221.74-24.28 220.78-25 219.54-25L219.54-25Q218.39-25 217.55-24.41 216.71-23.83 216.12-22.89 215.53-21.95 215.16-20.76 214.78-19.58 214.57-18.37 214.36-17.16 214.29-16.05 214.22-14.94 214.22-14.14L214.22-14.14 214.22 0 205.94 0 205.94-28.2 209.11-28.2 212.46-21.63Q213.14-23.22 214.02-24.55 214.9-25.88 216.05-26.84 217.19-27.81 218.65-28.34 220.1-28.88 221.93-28.88L221.93-28.88Q222.88-28.88 224.05-28.72 225.23-28.56 226.35-28.19 227.47-27.81 228.42-27.2 229.38-26.59 229.91-25.71ZM257.62-9.01L257.62-9.01Q257.62-7.15 257.08-5.71 256.55-4.27 255.62-3.21 254.69-2.15 253.42-1.43 252.15-0.71 250.7-0.27 249.25 0.17 247.66 0.37 246.07 0.56 244.51 0.56L244.51 0.56Q242.41 0.56 240.8 0.29 239.19 0.02 237.72-0.57 236.26-1.17 234.81-2.12 233.35-3.08 231.57-4.44L231.57-4.44 236.38-8.37Q237.04-7.13 238.13-6.12 239.21-5.1 240.39-4.37 241.56-3.64 242.66-3.25 243.75-2.86 244.44-2.86L244.44-2.86Q245-2.86 245.71-2.89 246.42-2.93 247.15-3.04 247.88-3.15 248.59-3.37 249.3-3.59 249.85-3.97 250.4-4.35 250.72-4.92 251.05-5.49 251.05-6.3L251.05-6.3Q251.05-7.13 250.63-7.75 250.2-8.37 249.52-8.84 248.83-9.3 247.95-9.62 247.07-9.94 246.18-10.18 245.29-10.42 244.46-10.61 243.63-10.79 243.02-10.96L243.02-10.96Q241.9-11.28 240.65-11.61 239.41-11.94 238.19-12.37 236.97-12.79 235.86-13.38 234.75-13.96 233.9-14.78 233.06-15.6 232.56-16.71 232.06-17.82 232.06-19.31L232.06-19.31Q232.06-22.05 233.15-23.89 234.23-25.73 236.02-26.84 237.8-27.95 240.07-28.42 242.34-28.88 244.68-28.88L244.68-28.88Q246.29-28.88 248.08-28.55 249.86-28.22 251.54-27.58 253.23-26.93 254.69-26 256.16-25.07 257.13-23.88L257.13-23.88 252.32-19.92Q251.79-21.39 250.92-22.44 250.05-23.49 249.04-24.16 248.03-24.83 246.96-25.15 245.9-25.46 245-25.46L245-25.46Q244.12-25.46 243.02-25.39 241.92-25.32 240.96-24.98 239.99-24.63 239.32-23.94 238.65-23.24 238.65-22.02L238.65-22.02Q238.65-21.14 239.05-20.52 239.46-19.9 240.12-19.45 240.78-18.99 241.62-18.69 242.46-18.38 243.34-18.15 244.22-17.92 245.05-17.75 245.88-17.58 246.54-17.38L246.54-17.38Q247.66-17.07 248.92-16.74 250.18-16.41 251.4-15.98 252.62-15.55 253.75-14.98 254.89-14.4 255.74-13.57 256.6-12.74 257.11-11.63 257.62-10.52 257.62-9.01ZM305.22-4.49L305.22 0 275.76 0 275.76-4.49 275.73-4.49 294.12-30.66 275.76-30.66 275.76-35.16 305.22-35.16 305.22-30.66 286.84-4.49 305.22-4.49ZM337.77-28.2L337.77 0 329.51 0 329.51-3.37Q328.05-1.37 325.99-0.4 323.92 0.56 321.46 0.56L321.46 0.56Q318.23 0.56 315.7-0.59 313.16-1.73 311.4-3.72 309.64-5.71 308.71-8.4 307.79-11.08 307.79-14.16L307.79-14.16Q307.79-17.24 308.71-19.92 309.64-22.61 311.4-24.6 313.16-26.59 315.7-27.73 318.23-28.88 321.46-28.88L321.46-28.88Q323.09-28.88 324.57-28.39 326.05-27.91 327.28-27.01 328.51-26.12 329.45-24.87 330.39-23.61 330.93-22.07L330.93-22.07 334.59-28.2 337.77-28.2ZM329.46-14.16L329.46-14.16Q329.46-15.26 329.35-16.48 329.24-17.7 328.98-18.9 328.71-20.09 328.23-21.18 327.76-22.27 327.01-23.11 326.27-23.95 325.22-24.44 324.17-24.93 322.78-24.93L322.78-24.93Q321.38-24.93 320.36-24.43 319.33-23.93 318.6-23.08 317.87-22.24 317.39-21.14 316.92-20.04 316.65-18.85 316.38-17.65 316.27-16.44 316.16-15.23 316.16-14.16L316.16-14.16Q316.16-13.09 316.27-11.87 316.38-10.64 316.65-9.45 316.92-8.25 317.39-7.15 317.87-6.05 318.6-5.21 319.33-4.37 320.36-3.87 321.38-3.37 322.78-3.37L322.78-3.37Q324.04-3.37 325.03-3.89 326.02-4.42 326.77-5.3 327.51-6.18 328.02-7.3 328.54-8.42 328.85-9.62 329.17-10.82 329.32-12 329.46-13.18 329.46-14.16ZM388.28-16.46L388.28-16.46Q388.28-13.55 387.59-10.4 386.91-7.25 385.68-4.26 384.44-1.27 382.71 1.39 380.98 4.05 378.85 6.01L378.85 6.01 375.75 4.32Q376.46 3.05 377.05 1.46 377.63-0.12 378.12-1.88 378.61-3.64 378.97-5.49 379.34-7.35 379.6-9.19 379.85-11.04 379.97-12.77 380.1-14.5 380.1-16.02L380.1-16.02Q380.1-16.87 380.05-17.87 380-18.87 379.84-19.87 379.68-20.87 379.36-21.79 379.05-22.71 378.5-23.43 377.95-24.15 377.13-24.57 376.31-25 375.17-25L375.17-25Q374.04-25 373.25-24.4 372.46-23.8 371.89-22.85 371.33-21.9 371-20.7 370.67-19.51 370.5-18.3 370.33-17.09 370.27-15.99 370.21-14.89 370.21-14.14L370.21-14.14 370.21 0 361.98 0 361.98-13.13Q361.98-13.99 362.01-15.2 362.03-16.41 361.95-17.72 361.86-19.04 361.63-20.35 361.4-21.66 360.9-22.68 360.39-23.71 359.54-24.35 358.69-25 357.39-25L357.39-25Q356.29-25 355.55-24.39 354.8-23.78 354.3-22.81 353.8-21.85 353.52-20.64 353.24-19.43 353.11-18.23 352.97-17.02 352.95-15.93 352.92-14.84 352.92-14.14L352.92-14.14 352.92 0 344.65 0 344.65-28.2 347.82-28.2 350.85-21.63Q351.87-25.05 354.08-26.97 356.29-28.88 359.96-28.88L359.96-28.88Q363.25-28.88 365.42-27.51 367.6-26.15 368.84-23.07L368.84-23.07Q369.55-24.41 370.42-25.49 371.28-26.56 372.35-27.32 373.41-28.08 374.7-28.48 376-28.88 377.56-28.88L377.56-28.88Q380.44-28.88 382.48-27.94 384.52-27 385.81-25.34 387.1-23.68 387.69-21.4 388.28-19.12 388.28-16.46ZM422.16-28.2L422.16 0 413.91 0 413.91-3.37Q412.44-1.37 410.38-0.4 408.32 0.56 405.85 0.56L405.85 0.56Q402.63 0.56 400.09-0.59 397.55-1.73 395.79-3.72 394.03-5.71 393.11-8.4 392.18-11.08 392.18-14.16L392.18-14.16Q392.18-17.24 393.11-19.92 394.03-22.61 395.79-24.6 397.55-26.59 400.09-27.73 402.63-28.88 405.85-28.88L405.85-28.88Q407.49-28.88 408.96-28.39 410.44-27.91 411.67-27.01 412.91-26.12 413.85-24.87 414.79-23.61 415.32-22.07L415.32-22.07 418.99-28.2 422.16-28.2ZM413.86-14.16L413.86-14.16Q413.86-15.26 413.75-16.48 413.64-17.7 413.37-18.9 413.1-20.09 412.63-21.18 412.15-22.27 411.41-23.11 410.66-23.95 409.61-24.44 408.56-24.93 407.17-24.93L407.17-24.93Q405.78-24.93 404.75-24.43 403.73-23.93 402.99-23.08 402.26-22.24 401.79-21.14 401.31-20.04 401.04-18.85 400.77-17.65 400.66-16.44 400.55-15.23 400.55-14.16L400.55-14.16Q400.55-13.09 400.66-11.87 400.77-10.64 401.04-9.45 401.31-8.25 401.79-7.15 402.26-6.05 402.99-5.21 403.73-4.37 404.75-3.87 405.78-3.37 407.17-3.37L407.17-3.37Q408.44-3.37 409.43-3.89 410.42-4.42 411.16-5.3 411.91-6.18 412.42-7.3 412.93-8.42 413.25-9.62 413.57-10.82 413.71-12 413.86-13.18 413.86-14.16ZM457.88-16.16L457.88-16.16Q457.88-13.31 457.18-10.21 456.48-7.1 455.24-4.13 453.99-1.15 452.26 1.48 450.53 4.1 448.45 6.01L448.45 6.01 445.35 4.32Q446.01 3.1 446.6 1.59 447.18 0.07 447.66-1.62 448.13-3.32 448.51-5.13 448.89-6.93 449.15-8.7 449.4-10.47 449.54-12.15 449.67-13.82 449.67-15.26L449.67-15.26Q449.67-16.21 449.6-17.3 449.53-18.38 449.29-19.47 449.06-20.56 448.67-21.56 448.28-22.56 447.63-23.32 446.99-24.07 446.07-24.54 445.16-25 443.91-25L443.91-25Q442.69-25 441.74-24.45 440.79-23.9 440.05-23.01 439.32-22.12 438.8-20.97 438.27-19.82 437.94-18.62 437.61-17.41 437.47-16.24 437.32-15.06 437.32-14.14L437.32-14.14 437.32 0 429.04 0 429.04-28.2 432.22-28.2 436-21.63Q436.68-23.27 437.71-24.61 438.73-25.95 440.03-26.9 441.32-27.86 442.9-28.37 444.47-28.88 446.3-28.88L446.3-28.88Q449.23-28.88 451.41-27.93 453.58-26.98 455.02-25.28 456.46-23.58 457.17-21.25 457.88-18.92 457.88-16.16ZM471.62-28.17L471.62 0 463.34 0 463.34-28.17 471.62-28.17Z" opacity="1" transform="matrix(1,0,0,1,0,0)" fill="#fb7185" class="wordmark-text-0" data-fill-palette-color="primary" id="text-0"></path></svg></g></svg></g><g transform="matrix(1,0,0,1,0,63.41805802905121)"><svg viewBox="0 0 395.52 37.26215810395158" height="37.26215810395158" width="395.52"><path d="M395.52 0l-6.21 18.631 6.21 18.631h-395.52l6.21-18.631-6.21-18.631z" data-fill-palette-color="tertiary" opacity="1" fill="#fb7185"></path><g transform="matrix(1,0,0,1,75.54432,10.169793246394594)"><svg width="244.43135999999998" viewBox="3.45 -36.75 704.0799999999999 48.75" height="16.92257161116239" data-palette-color="#ffffff"><path d="M16.55 0.5Q9.65 0.5 6.55-3.65 3.45-7.8 3.45-15.7L3.45-15.7 3.45-36.75 9.05-36.75 9.05-15.6Q9.05-9.75 10.8-7.23 12.55-4.7 16.55-4.7L16.55-4.7Q20.55-4.7 22.28-7.18 24-9.65 24-15.6L24-15.6 24-36.75 29.65-36.75 29.65-15.7Q29.65-7.85 26.38-3.68 23.1 0.5 16.55 0.5L16.55 0.5ZM34.1 0L44.55-16.85 45.8-18.65 40.25-18.5 36.3-18.5 36.3-22.95 54.15-22.95 43.8-6.05 42.55-4.15 47.95-4.35 53.75-4.45 53.75 0 34.1 0ZM59.25 0L59.25-22.95 64.65-22.95 64.65-18.8Q65.75-21.15 67.87-22.35 70-23.55 72.75-23.55L72.75-23.55Q78.9-23.5 80.3-19.3L80.3-19.3Q81.4-21.25 83.6-22.4 85.8-23.55 88.25-23.55L88.25-23.55Q91.84-23.55 93.7-22.18 95.55-20.8 96.17-18.28 96.8-15.75 96.8-11.5L96.8-11.5 96.8 0 91.34 0 91.34-11.55Q91.34-15.6 90.52-17.35 89.7-19.1 87.35-19.1L87.35-19.1Q84.2-19.1 82.57-16.98 80.95-14.85 80.95-11.4L80.95-11.4 80.95 0 75.55 0 75.55-12.35Q75.55-15 75.35-16.3 75.15-17.6 74.25-18.35 73.35-19.1 71.35-19.1L71.35-19.1Q69.6-19.1 68.07-18.05 66.55-17 65.62-15.23 64.7-13.45 64.7-11.4L64.7-11.4 64.7 0 59.25 0ZM113.84 0.5Q110.74 0.5 108.12-0.98 105.49-2.45 103.92-5.18 102.34-7.9 102.34-11.55L102.34-11.55Q102.34-15.15 103.72-17.85 105.09-20.55 107.64-22.05 110.19-23.55 113.64-23.55L113.64-23.55Q115.64-23.55 117.39-22.85 119.14-22.15 120.34-21.13 121.54-20.1 121.94-19.1L121.94-19.1 122.04-22.95 127.19-22.95 127.19 0 122.09 0 121.99-4.05Q121.14-2.25 118.89-0.88 116.64 0.5 113.84 0.5L113.84 0.5ZM114.74-4Q117.59-4 119.54-5.98 121.49-7.95 121.49-11.15L121.49-11.15 121.49-11.5Q121.49-13.65 120.59-15.35 119.69-17.05 118.14-18 116.59-18.95 114.74-18.95L114.74-18.95Q111.54-18.95 109.79-16.88 108.04-14.8 108.04-11.5L108.04-11.5Q108.04-8.15 109.77-6.08 111.49-4 114.74-4L114.74-4ZM134.44 0L134.44-22.95 139.74-22.95 139.79-18.75Q140.74-20.85 142.79-22.2 144.84-23.55 147.59-23.55L147.59-23.55Q151.14-23.55 153.04-22.08 154.94-20.6 155.59-17.95 156.24-15.3 156.24-11.05L156.24-11.05 156.24 0 150.84 0 150.84-10.9Q150.84-15.25 149.99-17.18 149.14-19.1 146.49-19.1L146.49-19.1Q144.99-19.1 143.44-18.18 141.89-17.25 140.87-15.5 139.84-13.75 139.84-11.4L139.84-11.4 139.84 0 134.44 0ZM175.74 0L175.74-36.75 181.34-36.75 181.34-21.75 194.29-21.75 194.29-36.75 199.89-36.75 199.89 0 194.29 0 194.29-17.05 181.34-17.05 181.34 0 175.74 0ZM217.98 0.5Q214.43 0.5 211.68-1.1 208.93-2.7 207.43-5.45 205.93-8.2 205.93-11.55L205.93-11.55Q205.93-14.85 207.41-17.6 208.88-20.35 211.63-21.95 214.38-23.55 217.98-23.55L217.98-23.55Q221.58-23.55 224.31-21.95 227.03-20.35 228.51-17.6 229.98-14.85 229.98-11.55L229.98-11.55Q229.98-8.2 228.48-5.45 226.98-2.7 224.26-1.1 221.53 0.5 217.98 0.5L217.98 0.5ZM218.13-3.9Q221.03-3.9 222.71-6.05 224.38-8.2 224.38-11.45L224.38-11.45Q224.38-14.7 222.58-16.93 220.78-19.15 217.83-19.15L217.83-19.15Q214.98-19.15 213.26-16.95 211.53-14.75 211.53-11.45L211.53-11.45Q211.53-8.25 213.38-6.08 215.23-3.9 218.13-3.9L218.13-3.9ZM246.43 0.5Q243.03 0.5 240.31-0.98 237.58-2.45 235.98-5.23 234.38-8 234.38-11.75L234.38-11.75Q234.38-15.3 235.86-17.98 237.33-20.65 240-22.1 242.68-23.55 246.18-23.55L246.18-23.55Q248.83-23.55 250.75-22.88 252.68-22.2 253.78-21.2L253.78-21.2 251.38-16.85Q249.28-18.95 246.63-18.95L246.63-18.95Q243.43-18.95 241.75-17 240.08-15.05 240.08-11.8L240.08-11.8Q240.08-8.1 241.81-6.05 243.53-4 246.63-4L246.63-4Q248.18-4 249.66-4.45 251.13-4.9 251.93-5.5L251.93-5.5 253.88-1.7Q252.78-0.85 250.81-0.18 248.83 0.5 246.43 0.5L246.43 0.5ZM269.18 0.5Q266.08 0.5 263.45-0.98 260.83-2.45 259.25-5.18 257.68-7.9 257.68-11.55L257.68-11.55Q257.68-15.15 259.05-17.85 260.43-20.55 262.98-22.05 265.53-23.55 268.98-23.55L268.98-23.55Q270.98-23.55 272.73-22.85 274.48-22.15 275.68-21.13 276.88-20.1 277.28-19.1L277.28-19.1 277.38-22.95 282.53-22.95 282.53 0 277.43 0 277.33-4.05Q276.48-2.25 274.23-0.88 271.98 0.5 269.18 0.5L269.18 0.5ZM270.08-4Q272.93-4 274.88-5.98 276.83-7.95 276.83-11.15L276.83-11.15 276.83-11.5Q276.83-13.65 275.93-15.35 275.03-17.05 273.48-18 271.93-18.95 270.08-18.95L270.08-18.95Q266.88-18.95 265.13-16.88 263.38-14.8 263.38-11.5L263.38-11.5Q263.38-8.15 265.1-6.08 266.83-4 270.08-4L270.08-4ZM290.23 0L290.23-36.75 295.58-36.75 295.58 0 290.23 0ZM313.32 0.5Q310.22 0.5 307.6-0.98 304.97-2.45 303.4-5.18 301.82-7.9 301.82-11.55L301.82-11.55Q301.82-15.15 303.2-17.85 304.57-20.55 307.12-22.05 309.67-23.55 313.12-23.55L313.12-23.55Q315.12-23.55 316.87-22.85 318.62-22.15 319.82-21.13 321.02-20.1 321.42-19.1L321.42-19.1 321.52-22.95 326.67-22.95 326.67 0 321.57 0 321.47-4.05Q320.62-2.25 318.37-0.88 316.12 0.5 313.32 0.5L313.32 0.5ZM314.22-4Q317.07-4 319.02-5.98 320.97-7.95 320.97-11.15L320.97-11.15 320.97-11.5Q320.97-13.65 320.07-15.35 319.17-17.05 317.62-18 316.07-18.95 314.22-18.95L314.22-18.95Q311.02-18.95 309.27-16.88 307.52-14.8 307.52-11.5L307.52-11.5Q307.52-8.15 309.25-6.08 310.97-4 314.22-4L314.22-4ZM333.77 0L333.77-22.95 339.17-22.95 339.17-18.45Q339.97-20.75 341.77-22.15 343.57-23.55 345.87-23.55L345.87-23.55Q347.47-23.55 348.07-23.25L348.07-23.25 347.32-17.8Q346.87-18.1 345.37-18.1L345.37-18.1Q343.02-18.1 341.1-16.6 339.17-15.1 339.17-11.8L339.17-11.8 339.17 0 333.77 0ZM352.32 0L352.32-36.75 357.67-36.75 357.67 0 352.32 0ZM375.41 0.5Q372.31 0.5 369.69-0.98 367.06-2.45 365.49-5.18 363.91-7.9 363.91-11.55L363.91-11.55Q363.91-15.15 365.29-17.85 366.66-20.55 369.21-22.05 371.76-23.55 375.21-23.55L375.21-23.55Q377.21-23.55 378.96-22.85 380.71-22.15 381.91-21.13 383.11-20.1 383.51-19.1L383.51-19.1 383.61-22.95 388.76-22.95 388.76 0 383.66 0 383.56-4.05Q382.71-2.25 380.46-0.88 378.21 0.5 375.41 0.5L375.41 0.5ZM376.31-4Q379.16-4 381.11-5.98 383.06-7.95 383.06-11.15L383.06-11.15 383.06-11.5Q383.06-13.65 382.16-15.35 381.26-17.05 379.71-18 378.16-18.95 376.31-18.95L376.31-18.95Q373.11-18.95 371.36-16.88 369.61-14.8 369.61-11.5L369.61-11.5Q369.61-8.15 371.34-6.08 373.06-4 376.31-4L376.31-4ZM408.61 0L408.61-36.75 417.96-36.75Q425.86-36.75 428.46-34.1 431.06-31.45 431.06-27.7L431.06-27.7Q431.06-25.2 429.96-22.98 428.86-20.75 426.46-19.65L426.46-19.65Q430.01-18.75 431.69-16.5 433.36-14.25 433.36-11.2L433.36-11.2Q433.36-8 432.36-5.6 431.36-3.2 428.21-1.6 425.06 0 419.11 0L419.11 0 408.61 0ZM414.11-21.15L418.86-21.15Q422.41-21.15 423.91-22.88 425.41-24.6 425.41-27.25L425.41-27.25Q425.41-32 418.61-32L418.61-32 414.11-32 414.11-21.15ZM414.11-4.7L419.86-4.7Q424.41-4.7 425.98-6.53 427.56-8.35 427.56-11.15L427.56-11.15Q427.56-13.8 425.76-15.25 423.96-16.7 420.31-16.7L420.31-16.7 414.11-16.7 414.11-4.7ZM439.96 0L439.96-22.95 445.56-22.95 445.56 0 439.96 0ZM442.71-27.25Q441.16-27.25 440.11-28.3 439.06-29.35 439.06-30.9L439.06-30.9Q439.06-32.3 440.11-33.3 441.16-34.3 442.71-34.3L442.71-34.3Q444.21-34.3 445.26-33.3 446.31-32.3 446.31-30.9L446.31-30.9Q446.31-29.35 445.28-28.3 444.26-27.25 442.71-27.25L442.71-27.25ZM452.9 0L452.9-22.95 458.31-22.95 458.31-18.45Q459.11-20.75 460.9-22.15 462.7-23.55 465-23.55L465-23.55Q466.61-23.55 467.2-23.25L467.2-23.25 466.45-17.8Q466-18.1 464.5-18.1L464.5-18.1Q462.15-18.1 460.23-16.6 458.31-15.1 458.31-11.8L458.31-11.8 458.31 0 452.9 0ZM481.85 0.5Q477.75 0.5 475-1.13 472.25-2.75 470.95-5.48 469.65-8.2 469.65-11.45L469.65-11.45Q469.65-15.1 471.18-17.85 472.7-20.6 475.4-22.08 478.1-23.55 481.5-23.55L481.5-23.55Q486.8-23.55 489.38-20.63 491.95-17.7 491.95-12.4L491.95-12.4Q491.95-11.05 491.8-9.6L491.8-9.6 475.3-9.6Q475.85-6.55 477.48-5.2 479.1-3.85 482-3.85L482-3.85Q484.4-3.85 485.95-4.25 487.5-4.65 488.8-5.35L488.8-5.35 490.45-1.5Q489.2-0.7 487.05-0.1 484.9 0.5 481.85 0.5L481.85 0.5ZM475.3-13.35L486.7-13.35Q486.75-16.45 485.35-17.73 483.95-19 481.35-19L481.35-19Q476.1-19 475.3-13.35L475.3-13.35ZM511.2 0.5Q508.4 0.5 506.18-0.88 503.95-2.25 503.1-4.05L503.1-4.05 503 0 497.8 0 497.8-36.75 503.1-36.75 503.1-22.6 502.85-18.7Q503.7-20.7 506.18-22.13 508.65-23.55 511.55-23.55L511.55-23.55Q514.95-23.55 517.48-22.03 520-20.5 521.35-17.78 522.7-15.05 522.7-11.45L522.7-11.45Q522.7-7.8 521.13-5.1 519.55-2.4 516.92-0.95 514.3 0.5 511.2 0.5L511.2 0.5ZM510.3-4Q513.55-4 515.3-6.08 517.05-8.15 517.05-11.45L517.05-11.45Q517.05-14.8 515.33-16.88 513.6-18.95 510.3-18.95L510.3-18.95Q507.45-18.95 505.5-16.98 503.55-15 503.55-11.8L503.55-11.8 503.55-11.45Q503.55-9.3 504.48-7.6 505.4-5.9 506.93-4.95 508.45-4 510.3-4L510.3-4ZM528.85 0L528.85-22.95 534.45-22.95 534.45 0 528.85 0ZM531.6-27.25Q530.05-27.25 529-28.3 527.95-29.35 527.95-30.9L527.95-30.9Q527.95-32.3 529-33.3 530.05-34.3 531.6-34.3L531.6-34.3Q533.1-34.3 534.15-33.3 535.2-32.3 535.2-30.9L535.2-30.9Q535.2-29.35 534.17-28.3 533.15-27.25 531.6-27.25L531.6-27.25ZM541.79 0L541.79-22.95 547.19-22.95 547.19-18.45Q547.99-20.75 549.79-22.15 551.59-23.55 553.89-23.55L553.89-23.55Q555.49-23.55 556.09-23.25L556.09-23.25 555.34-17.8Q554.89-18.1 553.39-18.1L553.39-18.1Q551.04-18.1 549.12-16.6 547.19-15.1 547.19-11.8L547.19-11.8 547.19 0 541.79 0ZM572.44 0L572.44-36.75 588.54-36.75 588.54-31.85 577.99-31.85 577.99-21.7 586.49-21.7 586.49-16.7 577.99-16.7 577.99-4.95 590.19-4.95 590.19 0 572.44 0ZM606.64 12Q604.09 12 601.61 11.3 599.14 10.6 598.09 10L598.09 10 599.29 5Q602.59 7.15 606.49 7.15L606.49 7.15Q609.49 7.15 611.54 5.7 613.59 4.25 613.64 0.05L613.64 0.05 613.64-4.05Q612.59-2.1 610.24-0.8 607.89 0.5 605.04 0.5L605.04 0.5Q602.04 0.5 599.54-0.98 597.04-2.45 595.59-5.2 594.14-7.95 594.14-11.6L594.14-11.6Q594.14-15.1 595.51-17.82 596.89-20.55 599.44-22.05 601.99-23.55 605.39-23.55L605.39-23.55Q607.39-23.55 609.14-22.85 610.89-22.15 612.11-21.13 613.34-20.1 613.74-19.1L613.74-19.1 613.84-22.95 618.94-22.95 618.94-0.15Q618.94 5.7 615.94 8.85 612.94 12 606.64 12L606.64 12ZM606.54-4.05Q609.39-4.05 611.34-6.03 613.29-8 613.29-11.2L613.29-11.2 613.29-11.55Q613.29-13.7 612.39-15.4 611.49-17.1 609.94-18.05 608.39-19 606.54-19L606.54-19Q603.34-19 601.59-16.93 599.84-14.85 599.84-11.55L599.84-11.55Q599.84-8.2 601.56-6.13 603.29-4.05 606.54-4.05L606.54-4.05ZM607.44-27.6Q603.24-27.6 600.81-30.08 598.39-32.55 598.39-36.5L598.39-36.5 603.19-36.5Q603.19-34.6 604.19-33.27 605.19-31.95 607.44-31.95L607.44-31.95Q609.34-31.95 610.54-33.35 611.74-34.75 611.74-36.5L611.74-36.5 616.49-36.5Q616.49-32.55 614.04-30.08 611.59-27.6 607.44-27.6L607.44-27.6ZM626.23 0L626.23-22.95 631.83-22.95 631.83 0 626.23 0ZM628.98-27.25Q627.43-27.25 626.38-28.3 625.33-29.35 625.33-30.9L625.33-30.9Q625.33-32.3 626.38-33.3 627.43-34.3 628.98-34.3L628.98-34.3Q630.48-34.3 631.53-33.3 632.58-32.3 632.58-30.9L632.58-30.9Q632.58-29.35 631.56-28.3 630.53-27.25 628.98-27.25L628.98-27.25ZM641.33 0L641.33-18.55 637.28-18.55 637.28-22.95 641.33-22.95 641.33-32.3 646.78-33.5 646.78-22.95 652.08-22.95 652.08-18.55 646.78-18.55 646.78 0 641.33 0ZM656.88 0L656.88-22.95 662.48-22.95 662.48 0 656.88 0ZM659.63-27.25Q658.08-27.25 657.03-28.3 655.98-29.35 655.98-30.9L655.98-30.9Q655.98-32.3 657.03-33.3 658.08-34.3 659.63-34.3L659.63-34.3Q661.13-34.3 662.18-33.3 663.23-32.3 663.23-30.9L663.23-30.9Q663.23-29.35 662.2-28.3 661.18-27.25 659.63-27.25L659.63-27.25ZM669.98 0L669.98-22.95 675.38-22.95 675.38-18.8Q676.48-21.15 678.6-22.35 680.73-23.55 683.48-23.55L683.48-23.55Q689.63-23.5 691.03-19.3L691.03-19.3Q692.13-21.25 694.33-22.4 696.53-23.55 698.98-23.55L698.98-23.55Q702.58-23.55 704.43-22.18 706.28-20.8 706.9-18.28 707.53-15.75 707.53-11.5L707.53-11.5 707.53 0 702.08 0 702.08-11.55Q702.08-15.6 701.25-17.35 700.43-19.1 698.08-19.1L698.08-19.1Q694.93-19.1 693.3-16.98 691.68-14.85 691.68-11.4L691.68-11.4 691.68 0 686.28 0 686.28-12.35Q686.28-15 686.08-16.3 685.88-17.6 684.98-18.35 684.08-19.1 682.08-19.1L682.08-19.1Q680.33-19.1 678.8-18.05 677.28-17 676.35-15.23 675.43-13.45 675.43-11.4L675.43-11.4 675.43 0 669.98 0Z" opacity="1" transform="matrix(1,0,0,1,0,0)" fill="#ffffff" class="slogan-text-1" data-fill-palette-color="quaternary" id="text-1"></path></svg></g></svg></g></svg></g></svg></g></svg></g><defs></defs></svg><rect width="395.52" height="100.68021613300279" fill="none" stroke="none" visibility="hidden"></rect></g></svg></g></svg>